<svg width="75" height="75" viewBox="0 0 75 75" fill="none" xmlns="http://www.w3.org/2000/svg">
<circle cx="37.5" cy="37.5" r="37.5" fill="url(#paint0_linear_301_1535)"/>
<g filter="url(#filter0_d_301_1535)">
<path d="M37.7963 55.5C34.6296 55.5 31.913 54.9833 29.6463 53.95C27.413 52.9167 25.663 51.4 24.3963 49.4C23.163 47.4 22.4796 44.9167 22.3463 41.95C22.313 40.5833 22.2963 39.1167 22.2963 37.55C22.2963 35.9833 22.313 34.4833 22.3463 33.05C22.4796 30.15 23.1796 27.7 24.4463 25.7C25.713 23.6667 27.4796 22.1333 29.7463 21.1C32.013 20.0333 34.6963 19.5 37.7963 19.5C39.9963 19.5 42.0296 19.7833 43.8963 20.35C45.763 20.8833 47.3963 21.6833 48.7963 22.75C50.1963 23.7833 51.2796 25.05 52.0463 26.55C52.8463 28.0167 53.263 29.6833 53.2963 31.55C53.3296 31.85 53.2296 32.1 52.9963 32.3C52.7963 32.5 52.5463 32.6 52.2463 32.6H45.4963C45.063 32.6 44.7296 32.5167 44.4963 32.35C44.263 32.15 44.063 31.8 43.8963 31.3C43.4296 29.5333 42.663 28.3333 41.5963 27.7C40.563 27.0333 39.2796 26.7 37.7463 26.7C35.913 26.7 34.463 27.2167 33.3963 28.25C32.3296 29.25 31.7463 30.9333 31.6463 33.3C31.5463 36.0333 31.5463 38.8333 31.6463 41.7C31.7463 44.0667 32.3296 45.7667 33.3963 46.8C34.463 47.8 35.913 48.3 37.7463 48.3C39.2796 48.3 40.5796 47.9667 41.6463 47.3C42.713 46.6333 43.463 45.4333 43.8963 43.7C44.0296 43.2 44.213 42.8667 44.4463 42.7C44.713 42.5 45.063 42.4 45.4963 42.4H52.2463C52.5463 42.4 52.7963 42.5 52.9963 42.7C53.2296 42.9 53.3296 43.15 53.2963 43.45C53.263 45.3167 52.8463 47 52.0463 48.5C51.2796 49.9667 50.1963 51.2333 48.7963 52.3C47.3963 53.3333 45.763 54.1333 43.8963 54.7C42.0296 55.2333 39.9963 55.5 37.7963 55.5Z" fill="white"/>
</g>
<defs>
<filter id="filter0_d_301_1535" x="14.2963" y="15.5" width="47.05" height="52" filterUnits="userSpaceOnUse" color-interpolation-filters="sRGB">
<feFlood flood-opacity="0" result="BackgroundImageFix"/>
<feColorMatrix in="SourceAlpha" type="matrix" values="0 0 0 0 0 0 0 0 0 0 0 0 0 0 0 0 0 0 127 0" result="hardAlpha"/>
<feOffset dy="4"/>
<feGaussianBlur stdDeviation="4"/>
<feComposite in2="hardAlpha" operator="out"/>
<feColorMatrix type="matrix" values="0 0 0 0 0 0 0 0 0 0 0 0 0 0 0 0 0 0 0.25 0"/>
<feBlend mode="normal" in2="BackgroundImageFix" result="effect1_dropShadow_301_1535"/>
<feBlend mode="normal" in="SourceGraphic" in2="effect1_dropShadow_301_1535" result="shape"/>
</filter>
<linearGradient id="paint0_linear_301_1535" x1="37.5" y1="0" x2="37.5" y2="75" gradientUnits="userSpaceOnUse">
<stop stop-color="#1565C0"/>
<stop offset="1" stop-color="#0291E6"/>
</linearGradient>
</defs>
</svg>
