<svg width="30" height="30" viewBox="0 0 30 30" fill="none" xmlns="http://www.w3.org/2000/svg">
<g clip-path="url(#clip0_2_287)">
<g filter="url(#filter0_b_2_287)">
<path fill-rule="evenodd" clip-rule="evenodd" d="M22.5001 18.7499C26.6422 18.7499 30 15.3921 30 11.2499C30 7.10781 26.6422 3.74994 22.5 3.74994C21.7742 3.74994 21.0725 3.85304 20.4087 4.04539C19.1591 1.64174 16.6463 0 13.75 0C9.60783 0 6.24997 3.35786 6.24997 7.5L6.25005 7.53429C6.04482 7.5116 5.83627 7.49995 5.625 7.49995C2.5184 7.49995 0 10.0183 0 13.125C0 16.0203 2.18756 18.4047 5.00005 18.7156V18.75H22.5001V18.7499Z" fill="url(#paint0_linear_2_287)" fill-opacity="0.6"/>
</g>
<g filter="url(#filter1_b_2_287)">
<path fill-rule="evenodd" clip-rule="evenodd" d="M22.5 19.028V19.028H5V18.9931C2.18753 18.6776 0 16.2578 0 13.3195C0 10.1669 2.5184 7.61114 5.625 7.61114C5.83627 7.61114 6.04482 7.62296 6.25005 7.64599L6.24997 7.61121C6.24997 3.40765 9.60783 0 13.75 0C16.6463 0 19.1591 1.66608 20.4087 4.10536C21.0725 3.91017 21.7742 3.80554 22.5 3.80554C26.6421 3.80554 30 7.2132 30 11.4167C30 15.6203 26.6421 19.028 22.5 19.028Z" fill="url(#paint1_linear_2_287)" fill-opacity="0.6"/>
</g>
</g>
<defs>
<filter id="filter0_b_2_287" x="-10" y="-10" width="50" height="38.75" filterUnits="userSpaceOnUse" color-interpolation-filters="sRGB">
<feFlood flood-opacity="0" result="BackgroundImageFix"/>
<feGaussianBlur in="BackgroundImage" stdDeviation="5"/>
<feComposite in2="SourceAlpha" operator="in" result="effect1_backgroundBlur_2_287"/>
<feBlend mode="normal" in="SourceGraphic" in2="effect1_backgroundBlur_2_287" result="shape"/>
</filter>
<filter id="filter1_b_2_287" x="-10" y="-10" width="50" height="39.028" filterUnits="userSpaceOnUse" color-interpolation-filters="sRGB">
<feFlood flood-opacity="0" result="BackgroundImageFix"/>
<feGaussianBlur in="BackgroundImage" stdDeviation="5"/>
<feComposite in2="SourceAlpha" operator="in" result="effect1_backgroundBlur_2_287"/>
<feBlend mode="normal" in="SourceGraphic" in2="effect1_backgroundBlur_2_287" result="shape"/>
</filter>
<linearGradient id="paint0_linear_2_287" x1="7.55208" y1="11.5" x2="16.1903" y2="22.2978" gradientUnits="userSpaceOnUse">
<stop stop-color="white"/>
<stop offset="1" stop-color="#BDE0F5"/>
</linearGradient>
<linearGradient id="paint1_linear_2_287" x1="7.55208" y1="11.6705" x2="16.3458" y2="22.5021" gradientUnits="userSpaceOnUse">
<stop stop-color="white"/>
<stop offset="1" stop-color="#BDE0F5"/>
</linearGradient>
<clipPath id="clip0_2_287">
<rect width="30" height="30" fill="white"/>
</clipPath>
</defs>
</svg>
