<svg width="100" height="100" viewBox="0 0 100 100" fill="none" xmlns="http://www.w3.org/2000/svg">
<rect opacity="0.0229128" x="0.5" y="0.5" width="99" height="99" stroke="#2B2B2B"/>
<path fill-rule="evenodd" clip-rule="evenodd" d="M14.3875 45.7067C6.45568 45.7067 0 52.2767 0 60.3546C0 68.4275 6.45568 75 14.3875 75H76.942C86.9011 75 95 66.7511 95 56.6122C95 46.4733 86.9011 38.2244 76.942 38.2244C75.0894 38.2244 73.2467 38.516 71.4713 39.0865L70.3143 39.461L69.9054 38.2948C66.0828 27.3516 55.8645 20 44.4816 20C30.5654 20 19.0155 30.6165 17.6141 44.6938L17.4844 45.9983L16.2078 45.8374C15.4996 45.7469 14.9211 45.7067 14.3875 45.7067" fill="#D6E3F2"/>
</svg>
