<svg width="100" height="100" viewBox="0 0 100 100" fill="none" xmlns="http://www.w3.org/2000/svg">
<rect opacity="0.0229128" x="0.5" y="0.5" width="99" height="99" stroke="#2B2B2B"/>
<g clip-path="url(#clip0_229_1557)">
<path fill-rule="evenodd" clip-rule="evenodd" d="M31.1532 69.1921C31.1532 69.1921 28.365 77.007 29.0971 80.0042C29.7021 82.484 32.1812 84.0187 34.6275 83.4271C37.0825 82.8333 38.5708 80.336 37.9658 77.8584C37.2337 74.859 31.1532 69.1921 31.1532 69.1921" fill="#38A1E8"/>
<path fill-rule="evenodd" clip-rule="evenodd" d="M48.7438 68.9581C48.7438 68.9581 45.9556 76.773 46.6877 79.7724C47.2927 82.25 49.7718 83.7847 52.218 83.1931C54.673 82.5993 56.1614 80.102 55.5564 77.6244C54.8243 74.625 48.7438 68.9581 48.7438 68.9581" fill="#38A1E8"/>
<path fill-rule="evenodd" clip-rule="evenodd" d="M67.0226 68.7151C67.0226 68.7151 64.2344 76.53 64.9665 79.5272C65.5715 82.0071 68.0506 83.5417 70.4968 82.9501C72.9518 82.3563 74.4402 79.859 73.833 77.3814C73.1009 74.382 67.0226 68.7151 67.0226 68.7151" fill="#38A1E8"/>
<path fill-rule="evenodd" clip-rule="evenodd" d="M20.6474 38.0252C13.6748 38.0252 7.99976 43.7315 7.99976 50.7475C7.99976 57.7591 13.6748 63.4675 20.6474 63.4675H75.6373C84.392 63.4675 91.5115 56.3031 91.5115 47.4971C91.5115 38.691 84.392 31.5266 75.6373 31.5266C74.0087 31.5266 72.3888 31.7798 70.8281 32.2754L69.811 32.6006L69.4516 31.5877C66.0913 22.0832 57.1086 15.6981 47.1023 15.6981C34.8689 15.6981 24.7157 24.9188 23.4838 37.1455L23.3698 38.2785L22.2475 38.1388C21.625 38.0602 21.1165 38.0252 20.6474 38.0252" fill="#D6E3F2"/>
</g>
<defs>
<clipPath id="clip0_229_1557">
<rect width="84" height="69" fill="white" transform="translate(8 15)"/>
</clipPath>
</defs>
</svg>
