<svg width="100" height="100" viewBox="0 0 100 100" fill="none" xmlns="http://www.w3.org/2000/svg">
<rect opacity="0.0229128" x="0.5" y="0.5" width="99" height="99" stroke="#2B2B2B"/>
<g clip-path="url(#clip0_229_1588)">
<path fill-rule="evenodd" clip-rule="evenodd" d="M85.089 70.0569H14.5771C13.3937 70.0569 12.4355 69.0854 12.4355 67.8855C12.4355 66.6856 13.3937 65.7141 14.5771 65.7141H85.089C86.2724 65.7141 87.2305 66.6856 87.2305 67.8855C87.2305 69.0854 86.2724 70.0569 85.089 70.0569" fill="#BAC6D1"/>
<path fill-rule="evenodd" clip-rule="evenodd" d="M85.089 80.3704H14.5771C13.3937 80.3704 12.4355 79.3989 12.4355 78.1989C12.4355 76.999 13.3937 76.0275 14.5771 76.0275H85.089C86.2724 76.0275 87.2305 76.999 87.2305 78.1989C87.2305 79.3989 86.2724 80.3704 85.089 80.3704" fill="#BAC6D1"/>
<path fill-rule="evenodd" clip-rule="evenodd" d="M61.2095 90.1366H14.5764C13.3929 90.1366 12.4348 89.1651 12.4348 87.9652C12.4348 86.7653 13.3929 85.7938 14.5764 85.7938H61.2095C62.3929 85.7938 63.3511 86.7653 63.3511 87.9652C63.3511 89.1651 62.3929 90.1366 61.2095 90.1366" fill="#BAC6D1"/>
<path fill-rule="evenodd" clip-rule="evenodd" d="M20.6216 33.5802C13.6632 33.5802 7.99976 39.378 7.99976 46.5067C7.99976 53.6309 13.6632 59.4309 20.6216 59.4309H75.4994C84.2363 59.4309 91.3413 52.1515 91.3413 43.2041C91.3413 34.2567 84.2363 26.9772 75.4994 26.9772C73.8741 26.9772 72.2576 27.2345 70.7001 27.738L69.6851 28.0685L69.3263 27.0393C65.9729 17.3822 57.0085 10.8946 47.0226 10.8946C34.8141 10.8946 24.6816 20.2634 23.4523 32.6864L23.3385 33.8375L22.2185 33.6955C21.5973 33.6157 21.0898 33.5802 20.6216 33.5802" fill="#D6E3F2"/>
</g>
<defs>
<clipPath id="clip0_229_1588">
<rect width="84" height="81" fill="white" transform="translate(8 10)"/>
</clipPath>
</defs>
</svg>
