<svg width="101" height="100" viewBox="0 0 101 100" fill="none" xmlns="http://www.w3.org/2000/svg">
<rect opacity="0.0229128" x="0.5" y="0.5" width="98.0099" height="99" stroke="#2B2B2B"/>
<g clip-path="url(#clip0_229_1507)">
<path fill-rule="evenodd" clip-rule="evenodd" d="M33.4941 34.3313C41.8558 34.3376 48.6281 41.077 48.6217 49.3849C48.6154 57.6928 41.8324 64.4216 33.4707 64.4152C25.109 64.4089 18.3366 57.6695 18.343 49.3616C18.3494 41.0537 25.1324 34.325 33.4941 34.3313" fill="#F9C900"/>
<path fill-rule="evenodd" clip-rule="evenodd" d="M29.8842 69.4352C29.8842 69.617 29.8608 69.7988 29.8118 69.9827L27.2991 79.2694C26.9948 80.3941 25.831 81.06 24.6991 80.7577C23.565 80.4554 22.8948 79.299 23.1991 78.1744L25.7118 68.8877C26.0161 67.7631 27.1799 67.0972 28.3118 67.3974C29.2608 67.651 29.8842 68.5051 29.8842 69.4352" fill="#F9C900"/>
<path fill-rule="evenodd" clip-rule="evenodd" d="M19.3675 65.6227C19.3675 66.1914 19.1378 66.7579 18.6824 67.1722L11.5654 73.6896C10.7037 74.4781 9.36117 74.4232 8.56755 73.567C7.77181 72.7108 7.82712 71.3769 8.68883 70.5863L15.8058 64.0711C16.6697 63.2825 18.0122 63.3354 18.8058 64.1937C19.1824 64.5974 19.3675 65.1111 19.3675 65.6227" fill="#F9C900"/>
<mask id="mask0_229_1507" style="mask-type:alpha" maskUnits="userSpaceOnUse" x="0" y="53" width="14" height="7">
<path fill-rule="evenodd" clip-rule="evenodd" d="M0 53.2717V59.897H13.616V53.2717L0 53.2717L0 53.2717Z" fill="white"/>
</mask>
<g mask="url(#mask0_229_1507)">
<path fill-rule="evenodd" clip-rule="evenodd" d="M13.6158 55.3837C13.6158 56.3223 12.9797 57.1763 12.0244 57.4215L2.65414 59.8294C1.52009 60.1211 0.36052 59.4425 0.0669034 58.3158C-0.224586 57.189 0.456265 56.0369 1.59244 55.7452L10.9626 53.3395C12.0967 53.0477 13.2541 53.7242 13.5478 54.8531C13.5946 55.0306 13.6158 55.2082 13.6158 55.3837" fill="#F9C900"/>
</g>
<path fill-rule="evenodd" clip-rule="evenodd" d="M13.9137 43.5692C13.9137 43.7425 13.8925 43.918 13.8456 44.0955C13.5542 45.2223 12.3967 45.9009 11.2627 45.6112L1.8882 43.214C0.75416 42.9244 0.0711809 41.7723 0.36267 40.6455C0.65416 39.5188 1.81161 38.8402 2.94778 39.1298L12.3201 41.5271C13.2776 41.7723 13.9137 42.6284 13.9137 43.5692" fill="#F9C900"/>
<path fill-rule="evenodd" clip-rule="evenodd" d="M19.3153 33.3003C19.3153 33.8288 19.1174 34.3573 18.7174 34.7653C17.9025 35.6024 16.5578 35.6236 15.7153 34.8139L8.76421 28.1232C7.92166 27.3135 7.90038 25.9796 8.71527 25.1425C9.53017 24.3054 10.8748 24.2842 11.7174 25.0939L18.6685 31.7825C19.1004 32.1968 19.3153 32.7486 19.3153 33.3003" fill="#F9C900"/>
<path fill-rule="evenodd" clip-rule="evenodd" d="M29.1761 27.4368C29.1761 28.3796 28.5335 29.2379 27.5718 29.4789C26.4356 29.7642 25.2803 29.0793 24.9952 27.9483L22.6293 18.6236C22.3442 17.4926 23.0335 16.349 24.1697 16.0636C25.3059 15.7803 26.4612 16.4653 26.7463 17.5941L29.1122 26.9188C29.1548 27.0922 29.1761 27.2655 29.1761 27.4368" fill="#F9C900"/>
<path fill-rule="evenodd" clip-rule="evenodd" d="M43.3852 18.7993C43.3852 18.9769 43.3618 19.1566 43.315 19.3363L40.8555 28.6357C40.5576 29.7624 39.3959 30.4346 38.2618 30.1387C37.1299 29.8427 36.4512 28.6885 36.7491 27.5639L39.2087 18.2624C39.5065 17.1378 40.6682 16.4634 41.8023 16.7594C42.7555 17.0088 43.3852 17.8629 43.3852 18.7993" fill="#F9C900"/>
<path fill-rule="evenodd" clip-rule="evenodd" d="M58.7764 26.829C58.7764 27.4167 58.5296 28.0023 58.0466 28.4188L50.7445 34.7311C49.8615 35.4942 48.519 35.4012 47.7509 34.5239C46.9807 33.6445 47.0743 32.3127 47.9594 31.5474L55.2615 25.2372C56.1445 24.472 57.4849 24.565 58.2552 25.4444C58.6062 25.8439 58.7764 26.3386 58.7764 26.829" fill="#F9C900"/>
<path fill-rule="evenodd" clip-rule="evenodd" d="M66.302 40.903C66.302 41.8289 65.6828 42.6766 64.7403 42.9345L55.4084 45.4776C54.2764 45.7863 53.1084 45.1267 52.7998 44.0021C52.4892 42.8774 53.153 41.719 54.285 41.4103L63.6169 38.8672C64.7488 38.5586 65.9147 39.2181 66.2254 40.3428C66.2764 40.5288 66.302 40.7169 66.302 40.903" fill="#F9C900"/>
<path fill-rule="evenodd" clip-rule="evenodd" d="M66.1415 57.3442C66.1415 57.5175 66.1202 57.693 66.0734 57.8706C65.7819 58.9973 64.6245 59.6759 63.4904 59.3863L54.116 56.989C52.9819 56.6994 52.2968 55.5494 52.5904 54.4206C52.8819 53.2938 54.0394 52.6152 55.1755 52.9048L64.5479 55.3021C65.5053 55.5473 66.1415 56.4035 66.1415 57.3442" fill="#F9C900"/>
<path fill-rule="evenodd" clip-rule="evenodd" d="M58.2156 71.8243C58.2156 72.3718 58.0029 72.9172 57.5773 73.3294C56.739 74.1454 55.3944 74.1306 54.5752 73.2977L47.8092 66.4209C46.9901 65.588 47.005 64.2541 47.8433 63.4403C48.6816 62.6243 50.0263 62.6391 50.8454 63.472L57.6114 70.3487C58.0156 70.7588 58.2156 71.2915 58.2156 71.8243" fill="#F9C900"/>
<path fill-rule="evenodd" clip-rule="evenodd" d="M43.6032 79.6011C43.6032 80.5313 42.9798 81.3811 42.033 81.6348C40.9011 81.9371 39.7351 81.2712 39.4309 80.1465L36.9117 70.862C36.6075 69.7373 37.2777 68.581 38.4096 68.2766C39.5415 67.9743 40.7075 68.6402 41.0117 69.7648L43.5287 79.0494C43.5798 79.2333 43.6032 79.4193 43.6032 79.6011" fill="#F9C900"/>
<mask id="mask1_229_1507" style="mask-type:alpha" maskUnits="userSpaceOnUse" x="18" y="35" width="82" height="48">
<path fill-rule="evenodd" clip-rule="evenodd" d="M18.1162 82.2364H99.1779V35.9772H18.1162V82.2364V82.2364Z" fill="white"/>
</mask>
<g mask="url(#mask1_229_1507)">
<path fill-rule="evenodd" clip-rule="evenodd" d="M30.3928 57.5989C23.6247 57.5989 18.1162 63.1248 18.1162 69.9191C18.1162 76.7092 23.6247 82.2373 30.3928 82.2373H83.7694C92.2673 82.2373 99.1779 75.2992 99.1779 66.7714C99.1779 58.2437 92.2673 51.3056 83.7694 51.3056C82.1886 51.3056 80.6162 51.5509 79.1013 52.0307L78.1141 52.3457L77.7651 51.3648C74.5034 42.1606 65.7843 35.9772 56.0715 35.9772C44.1971 35.9772 34.3417 44.9066 33.146 56.747L33.0354 57.8441L31.946 57.7089C31.3417 57.6327 30.8481 57.5989 30.3928 57.5989" fill="#D6E3F2"/>
</g>
</g>
<defs>
<clipPath id="clip0_229_1507">
<rect width="101" height="67" fill="white" transform="translate(0 16)"/>
</clipPath>
</defs>
</svg>
