<svg width="28" height="58" viewBox="0 0 28 58" fill="none" xmlns="http://www.w3.org/2000/svg">
<path d="M26.0816 56.7932C27.1518 56.0718 27.4583 54.6323 26.7749 53.5374L13.095 31.6231C12.0915 30.0157 12.083 27.9791 13.073 26.3633L26.7575 4.02789C27.4324 2.92645 27.0437 1.48426 25.9068 0.871114V0.871114C24.9664 0.363981 23.7991 0.587829 23.1131 1.40685L2.68936 25.7894C1.13333 27.647 1.13333 30.353 2.68936 32.2106L22.9052 56.345C23.6931 57.2856 25.0642 57.4791 26.0816 56.7932V56.7932Z" fill="#0291E6"/>
<path d="M12.8829 31.7555L26.5628 53.6698C27.175 54.6504 26.9004 55.9398 25.9419 56.5859C25.0306 57.2002 23.8026 57.027 23.0969 56.1845L2.88101 32.0501C1.40278 30.2854 1.40278 27.7146 2.88101 25.9499L23.3047 1.56738C23.9146 0.839336 24.9522 0.640353 25.7881 1.09115C26.7987 1.6362 27.1442 2.91819 26.5444 3.89728L12.8598 26.2327C11.8203 27.9293 11.8293 30.0677 12.8829 31.7555Z" stroke="#1565C0" stroke-opacity="0.6" stroke-width="0.5"/>
</svg>
