<svg width="100" height="100" viewBox="0 0 100 100" fill="none" xmlns="http://www.w3.org/2000/svg">
<rect opacity="0.0229128" x="0.5" y="0.5" width="99" height="99" stroke="#2B2B2B"/>
<path fill-rule="evenodd" clip-rule="evenodd" d="M50.5778 35.0602C59.2094 35.0669 66.2007 42.0674 66.194 50.6968C66.1873 59.3262 59.185 66.3156 50.5533 66.3089C41.9216 66.3022 34.9303 59.3017 34.937 50.6723C34.9437 42.0429 41.9461 35.0535 50.5778 35.0602" fill="#F9C900"/>
<path fill-rule="evenodd" clip-rule="evenodd" d="M46.8511 71.5247C46.8511 71.7117 46.8266 71.903 46.7754 72.0922L44.1823 81.7385C43.8685 82.9067 42.6666 83.601 41.498 83.2872C40.3295 82.9735 39.635 81.7719 39.9511 80.6014L42.5442 70.9551C42.858 69.7868 44.0599 69.0948 45.2285 69.4086C46.2078 69.6711 46.8511 70.5568 46.8511 71.5247" fill="#F9C900"/>
<path fill-rule="evenodd" clip-rule="evenodd" d="M35.9943 67.5643C35.9943 68.154 35.7561 68.7437 35.2887 69.1754L27.9413 75.9423C27.051 76.7634 25.6643 76.7055 24.8452 75.8154C24.0239 74.9276 24.0796 73.5413 24.9699 72.7201L32.3173 65.951C33.2076 65.1322 34.5943 65.19 35.4134 66.0779C35.8029 66.5007 35.9943 67.0325 35.9943 67.5643" fill="#F9C900"/>
<path fill-rule="evenodd" clip-rule="evenodd" d="M30.0565 56.9285C30.0565 57.9031 29.3999 58.791 28.4138 59.0469L18.7405 61.5458C17.5675 61.8484 16.3722 61.1452 16.0695 59.9726C15.7668 58.8021 16.4702 57.6071 17.6432 57.3045L27.3165 54.8034C28.4873 54.5007 29.6826 55.2061 29.9853 56.3766C30.0342 56.5613 30.0565 56.746 30.0565 56.9285" fill="#F9C900"/>
<path fill-rule="evenodd" clip-rule="evenodd" d="M30.364 44.656C30.364 44.8362 30.3417 45.0187 30.295 45.2011C29.9923 46.3738 28.797 47.0792 27.6262 46.7766L17.9507 44.2866C16.7777 43.9862 16.0721 42.7912 16.3748 41.6208C16.6753 40.4481 17.8705 39.7427 19.0435 40.0453L28.7191 42.5353C29.7074 42.789 30.364 43.6791 30.364 44.656" fill="#F9C900"/>
<path fill-rule="evenodd" clip-rule="evenodd" d="M35.9404 33.9892C35.9404 34.5366 35.7356 35.0862 35.3238 35.5112C34.4825 36.379 33.0936 36.4035 32.2255 35.5602L25.0473 28.613C24.1792 27.7719 24.1547 26.3834 24.9983 25.5155C25.8396 24.6455 27.2263 24.6232 28.0966 25.4644L35.2726 32.4137C35.7178 32.8432 35.9404 33.4151 35.9404 33.9892" fill="#F9C900"/>
<path fill-rule="evenodd" clip-rule="evenodd" d="M46.1197 27.8985C46.1197 28.8776 45.4565 29.7699 44.4637 30.0191C43.2907 30.3151 42.0999 29.603 41.8039 28.4303L39.3622 18.744C39.0662 17.5691 39.7784 16.3808 40.9514 16.0848C42.1244 15.7889 43.3152 16.501 43.6113 17.6736L46.053 27.36C46.0975 27.5402 46.1197 27.7205 46.1197 27.8985" fill="#F9C900"/>
<path fill-rule="evenodd" clip-rule="evenodd" d="M60.7891 18.9262C60.7891 19.1109 60.7646 19.2978 60.7157 19.4825L58.176 29.1444C57.8689 30.3126 56.6714 31.0136 55.5006 30.7043C54.3298 30.3972 53.6309 29.1978 53.9381 28.0296L56.4777 18.3699C56.7849 17.1995 57.9846 16.5007 59.1554 16.8078C60.1392 17.0659 60.7891 17.9538 60.7891 18.9262" fill="#F9C900"/>
<path fill-rule="evenodd" clip-rule="evenodd" d="M76.678 27.267C76.678 27.8789 76.422 28.4864 75.9257 28.9181L68.3869 35.4758C67.4743 36.268 66.0898 36.1723 65.2952 35.26C64.5006 34.3476 64.5963 32.9635 65.5111 32.1691L73.0477 25.6137C73.9625 24.8193 75.3448 24.9149 76.1394 25.8273C76.5022 26.2434 76.678 26.7574 76.678 27.267" fill="#F9C900"/>
<path fill-rule="evenodd" clip-rule="evenodd" d="M84.4471 41.8865C84.4471 42.8478 83.8083 43.7289 82.8357 43.996L73.2001 46.6395C72.0338 46.9599 70.8274 46.2724 70.5069 45.1063C70.1864 43.9381 70.8742 42.7343 72.0405 42.4138L81.676 39.7703C82.8423 39.4521 84.0487 40.1374 84.3692 41.3035C84.4227 41.4993 84.4471 41.6951 84.4471 41.8865" fill="#F9C900"/>
<path fill-rule="evenodd" clip-rule="evenodd" d="M84.2815 58.9652C84.2815 59.1455 84.2592 59.3279 84.2125 59.5104C83.9098 60.6831 82.7145 61.3885 81.5437 61.0859L71.8681 58.5958C70.6951 58.2954 69.9896 57.1005 70.2923 55.93C70.5928 54.7573 71.788 54.0519 72.961 54.3546L82.6366 56.8446C83.6249 57.0983 84.2815 57.9884 84.2815 58.9652" fill="#F9C900"/>
<path fill-rule="evenodd" clip-rule="evenodd" d="M76.099 74.0063C76.099 74.5738 75.8786 75.1434 75.4401 75.5707C74.5743 76.4163 73.1876 76.4007 72.3418 75.5351L65.3572 68.3944C64.5114 67.5287 64.5248 66.1424 65.3906 65.2969C66.2565 64.4513 67.6431 64.4668 68.4889 65.3302L75.4735 72.4732C75.892 72.9004 76.099 73.4523 76.099 74.0063" fill="#F9C900"/>
<path fill-rule="evenodd" clip-rule="evenodd" d="M61.0139 82.0848C61.0139 83.0505 60.3684 83.9339 59.3913 84.1965C58.2228 84.5125 57.0208 83.8204 56.707 82.6522L54.1073 73.0081C53.7912 71.8399 54.4834 70.636 55.652 70.3223C56.8205 70.0063 58.0224 70.6983 58.3385 71.8666L60.9383 81.5129C60.9894 81.7042 61.0139 81.8956 61.0139 82.0848" fill="#F9C900"/>
</svg>
