<svg width="100" height="100" viewBox="0 0 100 100" fill="none" xmlns="http://www.w3.org/2000/svg">
<rect opacity="0.0229128" x="0.5" y="0.5" width="99" height="99" stroke="#2B2B2B"/>
<g clip-path="url(#clip0_229_1576)">
<path fill-rule="evenodd" clip-rule="evenodd" d="M62.9447 60.2432C62.9447 60.2432 60.2 67.7157 60.8936 70.5759C61.4681 72.9374 63.8638 74.3889 66.2383 73.8113C68.6191 73.2316 70.0745 70.8402 69.5021 68.4787C68.8085 65.6205 62.9447 60.2432 62.9447 60.2432" fill="#38A1E8"/>
<path fill-rule="evenodd" clip-rule="evenodd" d="M79.9981 59.9265C79.9981 59.9265 77.2535 67.3989 77.9471 70.2571C78.5215 72.6207 80.9173 74.0722 83.2917 73.4946C85.6726 72.9149 87.1279 70.5235 86.5556 68.162C85.862 65.3038 79.9981 59.9265 79.9981 59.9265" fill="#38A1E8"/>
<path fill-rule="evenodd" clip-rule="evenodd" d="M14.3849 61.2008C14.3849 61.2008 11.6402 68.6733 12.3338 71.5314C12.9083 73.8951 15.304 75.3465 17.6785 74.7689C20.0593 74.1892 21.5146 71.7978 20.9423 69.4363C20.2487 66.5782 14.3849 61.2008 14.3849 61.2008" fill="#38A1E8"/>
<path fill-rule="evenodd" clip-rule="evenodd" d="M26.2075 77.4525C26.2075 77.4525 23.4501 84.876 24.1394 87.7106C24.7075 90.0551 27.099 91.4916 29.4756 90.914C31.8565 90.3343 33.316 87.96 32.7458 85.6155C32.0586 82.7787 26.2075 77.4525 26.2075 77.4525" fill="#38A1E8"/>
<path fill-rule="evenodd" clip-rule="evenodd" d="M56.6878 76.4757C56.6878 76.4757 53.9303 83.8992 54.6197 86.7339C55.1878 89.0783 57.5792 90.5149 59.9558 89.9373C62.3367 89.3575 63.7963 86.9832 63.2261 84.6388C62.5388 81.8019 56.6878 76.4757 56.6878 76.4757" fill="#38A1E8"/>
<path fill-rule="evenodd" clip-rule="evenodd" d="M74.7088 75.643C74.7088 75.643 71.9513 83.0664 72.6407 85.9011C73.2088 88.2456 75.6002 89.6821 77.9768 89.1045C80.3577 88.5248 81.8173 86.1505 81.2471 83.806C80.5598 80.9692 74.7088 75.643 74.7088 75.643" fill="#38A1E8"/>
<path fill-rule="evenodd" clip-rule="evenodd" d="M28.3457 65.8844H42.3734L41.633 63.8234C40.2947 60.0978 39.0798 56.7218 38.6968 55.6646C38.0585 53.8999 38.033 52.5273 38.6266 51.7003C39.1117 51.0226 39.8819 50.8819 40.0606 50.8819H44.3074C46.9691 50.8819 48.5947 53.5397 49.1755 55.8138C49.3564 56.5236 49.567 57.3399 49.7968 58.2329C50.7223 61.8221 51.9904 66.7391 52.8713 70.5734C53.4947 73.2866 52.8798 74.4226 52.5862 74.7849C52.3138 75.1217 51.9351 75.2836 51.4266 75.2836H36.8287L41.9393 89.8791C42.1755 90.5505 42.1393 90.9213 42.0968 91.0385C41.9032 91.0662 41.2074 90.9064 40.5798 90.0048C37.6074 85.7315 30.1159 74.6805 26.8457 69.6484C26.0542 68.4292 25.8032 67.4254 26.1393 66.8201C26.4457 66.2702 27.3521 65.8844 28.3457 65.8844" fill="#F9C900"/>
<path fill-rule="evenodd" clip-rule="evenodd" d="M88.0729 33.89C94.2006 33.89 99.1857 38.9498 99.1857 45.1733C99.1857 51.3926 94.2006 56.4524 88.0729 56.4524H39.7559C32.0665 56.4524 25.8091 50.0988 25.8091 42.2896C25.8091 34.4803 32.0665 28.1268 39.7559 28.1268C41.1878 28.1268 42.6112 28.3506 43.9814 28.7918L44.8772 29.0795L45.1921 28.1822C48.1453 19.7528 56.0367 14.0898 64.8282 14.0898C75.5772 14.0898 84.4984 22.2656 85.5814 33.1099L85.6814 34.1138L86.6687 33.9901C87.2133 33.9219 87.6601 33.89 88.0729 33.89" fill="#D6E3F2"/>
<path fill-rule="evenodd" clip-rule="evenodd" d="M12.2764 31.6774C5.50827 31.6774 -0.000244141 37.2488 -0.000244141 44.0989C-0.000244141 50.9448 5.50827 56.5182 12.2764 56.5182H65.6529C74.1508 56.5182 81.0615 49.5232 81.0615 40.9253C81.0615 32.3275 74.1508 25.3324 65.6529 25.3324C64.0721 25.3324 62.4998 25.5797 60.9849 26.0635L59.9976 26.381L59.6487 25.3921C56.387 16.1122 47.6678 9.87805 37.9551 9.87805C26.0806 9.87805 16.2253 18.8808 15.0295 30.8185L14.9189 31.9247L13.8295 31.7883C13.2253 31.7115 12.7317 31.6774 12.2764 31.6774" fill="#BAC6D1"/>
</g>
<defs>
<clipPath id="clip0_229_1576">
<rect width="100" height="83" fill="white" transform="translate(0 9)"/>
</clipPath>
</defs>
</svg>
